<svg xmlns="http://www.w3.org/2000/svg" viewBox="0 0 453.77 190.43"><defs><style>.cls-1{font-size:150px;fill:#662d91;font-family:Abside-Regular, Abside;}.cls-2,.cls-3{fill:#434345;stroke:#fff;stroke-miterlimit:10;}.cls-2{stroke-width:0.25px;}.cls-3{stroke-width:0.5px;}.cls-4{fill:#808285;}.cls-5{fill:#bcbec0;}.cls-6{fill:#77787b;}.cls-7{fill:#fff;}</style></defs><title>Asset 5</title><g id="Layer_2" data-name="Layer 2"><g id="Layer_1-2" data-name="Layer 1"><text class="cls-1" transform="translate(0 129.98)">menta</text><path class="cls-2" d="M404.05,63.11c-8.45-.31-10.56,3.48-23.44,4.08-4.34.2-9,.41-10-.78-2.08-2.48,12.36-10.24,29-13.86a108.14,108.14,0,0,1,17-2.24C425,63,425,67,422.79,67.89,419.65,69.13,414.09,63.47,404.05,63.11Z"/><polygon class="cls-3" points="452.5 49.23 397.45 42.27 357.28 53.31 412.33 60.27 452.5 49.23"/><path class="cls-4" d="M400.9,51.57a117.26,117.26,0,0,1,17.47,2.6c2.77.59,5.53,1.24,8.28,1.89a5.92,5.92,0,0,1,1.85.51c.59.41.53,1.21.48,1.83a9.16,9.16,0,0,0,0,3.09c.19.79,1.4.45,1.21-.33-.46-1.83,1-4.61-1.18-5.73a17.31,17.31,0,0,0-3.91-1q-2.47-.58-5-1.14a125,125,0,0,0-19.22-3c-.81,0-.8,1.2,0,1.25Z"/><path class="cls-4" d="M400.9,50.73"/><path class="cls-4" d="M400.9,52a1.25,1.25,0,0,0,0-2.5,1.25,1.25,0,0,0,0,2.5Z"/><path class="cls-4" d="M429.22,63.7l-.57,7a31.28,31.28,0,0,0-.28,6.11,49.61,49.61,0,0,1,.46,6.67q-.06,3.48-.3,6.94c0,.16.24.16.25,0a59.11,59.11,0,0,0-.06-13,28.87,28.87,0,0,1,.18-6.76l.57-7c0-.16-.23-.16-.25,0Z"/><path class="cls-4" d="M429.31,63.82q.75,14.33.67,28.67a.13.13,0,0,0,.25,0q.07-14.34-.67-28.67c0-.16-.26-.16-.25,0Z"/><path class="cls-4" d="M429,63.35q-.09,14.57.13,29.14a.13.13,0,0,0,.25,0q-.22-14.56-.13-29.14a.13.13,0,0,0-.25,0Z"/><path class="cls-4" d="M429.63,63.51,429.78,78c0,2.34,0,4.68.07,7,0,2.19.7,4.35.61,6.53,0,.16.24.16.25,0,.09-2.19-.56-4.34-.61-6.53-.05-2.34-.05-4.68-.07-7l-.15-14.53a.13.13,0,1,0-.25,0Z"/><path class="cls-4" d="M429.26,63.66c-.15,4.91-.09,9.83.19,14.73.13,2.3.53,4.67.48,7,0,1-.28,1.85-.38,2.78a11.13,11.13,0,0,0,.15,3.05c0,.16.27.09.24-.06-.41-2.27.35-4.32.22-6.56s-.37-4.43-.49-6.66c-.26-4.74-.3-9.49-.16-14.24a.13.13,0,0,0-.25,0Z"/><path class="cls-4" d="M429,63.36a124.4,124.4,0,0,1-.21,14.58,21.57,21.57,0,0,0-.18,3c.07,1.22.35,2.42.41,3.65a45.65,45.65,0,0,1-.42,7.1c0,.16.23.16.25,0a45.65,45.65,0,0,0,.42-7.1c-.06-1.23-.34-2.43-.41-3.65a20.14,20.14,0,0,1,.18-3,124.4,124.4,0,0,0,.21-14.58c0-.16-.26-.16-.25,0Z"/><path class="cls-4" d="M429,62.9c-.27,10,.13,19.91.56,29.89,0,.16.26.16.25,0-.43-10-.83-19.9-.56-29.89,0-.16-.24-.16-.25,0Z"/><path class="cls-4" d="M429.26,62.9c-.06,2.62-.12,5.25-.05,7.87,0,1.3.1,2.61.21,3.91a23.26,23.26,0,0,1,.2,3.73h.25a16.74,16.74,0,0,0-.11-3.32,6.74,6.74,0,0,1-.09-3.48l-.25,0a21.5,21.5,0,0,0,.11,3,.13.13,0,0,0,.25,0,28.09,28.09,0,0,0-.26-6.41c0-.14-.24-.1-.24,0l-.08,2.56c0,.14.22.18.24,0a8,8,0,0,0,.14-1.83.13.13,0,0,0-.25,0,12.94,12.94,0,0,0,.09,2.49.13.13,0,0,0,.25,0,24.63,24.63,0,0,0,0-4.78.13.13,0,0,0-.25,0,24.93,24.93,0,0,0,.19,6c0,.16.26.09.24-.07a24.86,24.86,0,0,1-.18-6h-.25a24.63,24.63,0,0,1,0,4.78h.25a12.94,12.94,0,0,1-.09-2.49h-.25a8,8,0,0,1-.13,1.76l.25,0,.08-2.56-.25,0a27.46,27.46,0,0,1,.25,6.34h.25a21.5,21.5,0,0,1-.11-3,.13.13,0,0,0-.25,0,5.26,5.26,0,0,0,0,2.81,17.29,17.29,0,0,1,.24,4.06c0,.16.24.16.25,0a23.26,23.26,0,0,0-.2-3.73c-.11-1.3-.17-2.61-.21-3.91-.07-2.62,0-5.25.05-7.87a.13.13,0,0,0-.25,0Z"/><path class="cls-4" d="M429.28,63.06a42.76,42.76,0,0,1,0,6,41.33,41.33,0,0,0-.48,5.43c.09,1.83.47,3.65.6,5.49a53.11,53.11,0,0,1,.09,6,.13.13,0,0,0,.25,0,53.11,53.11,0,0,0-.09-6c-.13-1.83-.51-3.66-.6-5.49a43.28,43.28,0,0,1,.48-5.43,42.76,42.76,0,0,0,0-6c0-.16-.26-.16-.25,0Z"/><rect class="cls-5" x="428.68" y="61.03" width="1" height="2"/><path class="cls-4" d="M428.89,62.12a.79.79,0,0,0,.54.22.84.84,0,0,0,.54-.22,0,0,0,1,0-.07-.07.73.73,0,0,1-.47.19.68.68,0,0,1-.47-.19s-.12,0-.07.07Z"/><path class="cls-4" d="M428.89,62.68a.84.84,0,0,0,.54.22.8.8,0,0,0,.54-.23s0-.11-.07-.07a.69.69,0,0,1-.47.2.73.73,0,0,1-.47-.19,0,0,0,1,0-.07.07Z"/><path class="cls-4" d="M428.89,63.19a.77.77,0,0,0,1.08,0,0,0,0,1,0-.07-.07.73.73,0,0,1-.47.19.68.68,0,0,1-.47-.19s-.12,0-.07.07Z"/><path class="cls-5" d="M428.9,63.52a.79.79,0,0,0,1.09,0"/><path class="cls-4" d="M429.46,61.91a.93.93,0,0,0,0-1.85.93.93,0,0,0,0,1.85Z"/><path class="cls-6" d="M429.1,60.29a.71.71,0,0,1,.73,0c.05,0,.11-.06.05-.09a.85.85,0,0,0-.83,0c-.05,0,0,.12.05.09Z"/><path class="cls-7" d="M401.82,51.6a1.61,1.61,0,0,0,.22-1.3s-.05,0,0,0a1.66,1.66,0,0,1-.22,1.27s0,.05,0,0Z"/></g></g></svg>